<?xml version="1.0" encoding="utf-8"?>
<!-- Generator: Adobe Illustrator 27.5.0, SVG Export Plug-In . SVG Version: 6.00 Build 0)  -->
<svg version="1.1" id="Warstwa_1" xmlns="http://www.w3.org/2000/svg" xmlns:xlink="http://www.w3.org/1999/xlink" x="0px" y="0px"
	 viewBox="0 0 283.46 283.46" style="enable-background:new 0 0 283.46 283.46;" xml:space="preserve">
<style type="text/css">
	.st0{fill:url(#SVGID_1_);}
	.st1{fill:url(#SVGID_00000134224347117984539070000011537695405583911311_);}
	.st2{fill:url(#SVGID_00000083779530049756351150000007724324219998286489_);}
	.st3{fill:url(#SVGID_00000145747938516059650260000000968408724910554244_);}
	.st4{fill:url(#SVGID_00000008853976611747354920000010054342723305616281_);}
	.st5{fill:url(#SVGID_00000013903752265392805670000014942431324958973885_);}
	.st6{fill:url(#SVGID_00000048477104090590596480000015193042344677397936_);}
	.st7{fill:url(#SVGID_00000114047775578447608450000003631183519722797972_);}
	.st8{fill:url(#SVGID_00000083804201311579370470000007263508259660592556_);}
	.st9{fill:url(#SVGID_00000145751167228479683250000017202571108862955195_);}
</style>
<linearGradient id="SVGID_1_" gradientUnits="userSpaceOnUse" x1="132.3469" y1="79.3101" x2="134.7284" y2="139.3923">
	<stop  offset="0" style="stop-color:#F9B233"/>
	<stop  offset="1" style="stop-color:#E30613"/>
</linearGradient>
<path class="st0" d="M162.72,96.78c-2.68-1.97-7.85-5.19-15.08-6.3c-11.47-1.77-20.31,2.97-23.05,4.58
	c-0.25,3.76-0.96,8.4-2.73,13.45c-4.37,12.48-12.63,20.15-17.1,23.72c3.81-1.07,9.81-3.22,15.8-7.8
	c12.63-9.67,13.3-21.11,24.44-26.27C148.4,96.58,154.04,95.01,162.72,96.78z"/>
<linearGradient id="SVGID_00000157279630365923743050000007643464498243626426_" gradientUnits="userSpaceOnUse" x1="121.5167" y1="84.0329" x2="114.8627" y2="99.425">
	<stop  offset="0" style="stop-color:#F9B233"/>
	<stop  offset="1" style="stop-color:#E30613"/>
</linearGradient>
<circle style="fill:url(#SVGID_00000157279630365923743050000007643464498243626426_);" cx="118.21" cy="91.69" r="6.02"/>
<linearGradient id="SVGID_00000042738697520817313500000013721592082614460087_" gradientUnits="userSpaceOnUse" x1="68.8383" y1="187.8926" x2="64.5437" y2="197.8269" gradientTransform="matrix(0.9453 -0.3262 0.3262 0.9453 -44.3005 -33.4593)">
	<stop  offset="0" style="stop-color:#009FE3"/>
	<stop  offset="1" style="stop-color:#312783"/>
</linearGradient>
<circle style="fill:url(#SVGID_00000042738697520817313500000013721592082614460087_);" cx="81.65" cy="127.07" r="3.89"/>
<linearGradient id="SVGID_00000085943758232788419350000003756724286708837037_" gradientUnits="userSpaceOnUse" x1="151.7539" y1="100.0887" x2="133.3437" y2="150.8519">
	<stop  offset="0" style="stop-color:#E30613"/>
	<stop  offset="1" style="stop-color:#F9B233"/>
</linearGradient>
<path style="fill:url(#SVGID_00000085943758232788419350000003756724286708837037_);" d="M156.18,132.1
	c2.03-14.56-5.39-25.02-12.41-25.66c-6.4-0.58-11.89,7.09-12.56,8.05c-0.42,0.6-2.06,3.01-3.05,6.69
	c-3.34,12.47,2.31,33.93,3.23,37.31c1.17-14.74,4.96-25.24,8.02-31.85c2.73-5.9,4.7-8.29,6.94-8.39
	C149.89,118.09,153.76,123.55,156.18,132.1z"/>
<linearGradient id="SVGID_00000082330456343344330890000000457153002439461037_" gradientUnits="userSpaceOnUse" x1="69.2708" y1="138.1842" x2="104.3392" y2="137.3771">
	<stop  offset="0" style="stop-color:#009FE3"/>
	<stop  offset="1" style="stop-color:#312783"/>
</linearGradient>
<path style="fill:url(#SVGID_00000082330456343344330890000000457153002439461037_);" d="M68.13,145.51
	c2.42-0.85,7.02-2.86,10.74-7.46c1.8-2.23,2.9-4.45,3.58-6.21c1.85,1.02,4.45,2.15,7.67,2.63c8.72,1.3,15.32-3.15,17.14-4.47
	c-3.06,4.54-6.38,7.12-8.61,8.55c-5.07,3.25-10.04,4.12-18.93,5.58C74.89,144.94,70.87,145.31,68.13,145.51z"/>
<linearGradient id="SVGID_00000128458061279412061440000004791628361843916674_" gradientUnits="userSpaceOnUse" x1="83.5646" y1="163.7312" x2="108.7601" y2="145.6516">
	<stop  offset="0" style="stop-color:#009FE3"/>
	<stop  offset="1" style="stop-color:#312783"/>
</linearGradient>
<path style="fill:url(#SVGID_00000128458061279412061440000004791628361843916674_);" d="M104.21,157.89
	c1.59-5.55-0.36-11.44-4.45-14.14c-4.79-3.16-10.3-0.47-13.05,2.18c-1.19,1.15-2.81,3.2-3.99,7.78
	c-2.62,10.12,0.18,19.81,2.06,24.86c-0.18-5.64,0.14-17.49,6.51-25.32c2.88-3.54,4.89-3.67,5.62-3.65
	C99.86,149.7,102.67,152.98,104.21,157.89z"/>
<linearGradient id="SVGID_00000164510004760779310320000006518662162442534317_" gradientUnits="userSpaceOnUse" x1="222.1089" y1="137.7471" x2="94.9686" y2="210.6228">
	<stop  offset="0" style="stop-color:#312783"/>
	<stop  offset="1" style="stop-color:#009FE3"/>
</linearGradient>
<path style="fill:url(#SVGID_00000164510004760779310320000006518662162442534317_);" d="M206.68,197.9
	c-17.72-0.24-35.45-0.48-53.18-0.73h-0.01c-15.03-0.2-30.07-0.4-45.11-0.61c-2.32-4.59-4.64-9.19-6.95-13.77
	c-3.58,4.79-7.15,9.59-10.72,14.38l-30.57,0.44c16.97-14.32,33.95-28.64,50.93-42.96l9.39,9.75l0.18-0.15l60.79-54.44l0.08-0.08
	l0.05-0.05c0.02,0.05,0.02,0.09,0.04,0.14c3.84,13.47,7.67,26.95,11.51,40.42c0.15,0.53,0.3,1.05,0.45,1.58
	C197.93,167.18,202.31,182.54,206.68,197.9z"/>
<linearGradient id="SVGID_00000130636201107469503810000015330811904102042555_" gradientUnits="userSpaceOnUse" x1="199.1521" y1="157.3454" x2="155.9796" y2="201.5414">
	<stop  offset="0" style="stop-color:#009FE3"/>
	<stop  offset="1" style="stop-color:#312783"/>
</linearGradient>
<path style="fill:url(#SVGID_00000130636201107469503810000015330811904102042555_);" d="M223.7,197.89
	c-29.74-0.24-59.48-0.48-89.23-0.73c7.71-14.33,15.42-28.65,23.12-42.98c2.79-5.18,5.57-10.35,8.36-15.53
	c5.18-9.64,10.38-19.28,15.57-28.92c0.01-0.02,0.03-0.05,0.04-0.08c0.03,0.05,0.04,0.09,0.06,0.14
	c6.44,13.47,12.87,26.95,19.31,40.42c0.25,0.53,0.51,1.05,0.75,1.58C209.03,167.17,216.37,182.53,223.7,197.89z"/>
<linearGradient id="SVGID_00000068640038747387427070000006043381023315260293_" gradientUnits="userSpaceOnUse" x1="117.7285" y1="141.9048" x2="122.825" y2="204.4828">
	<stop  offset="0" style="stop-color:#312783"/>
	<stop  offset="1" style="stop-color:#009FE3"/>
</linearGradient>
<path style="fill:url(#SVGID_00000068640038747387427070000006043381023315260293_);" d="M120.76,164.23
	c10.95,10.98,21.9,21.95,32.86,32.93c-12.07,0.16-24.3,0.23-36.68,0.2c-8.78-0.02-17.48-0.09-26.1-0.21
	c6.79-14.18,13.57-28.34,20.36-42.52L120.76,164.23z"/>
<linearGradient id="SVGID_00000046313265300930634940000016529194382739864231_" gradientUnits="userSpaceOnUse" x1="190.7769" y1="130.9333" x2="161.2541" y2="165.1187">
	<stop  offset="0" style="stop-color:#009FE3"/>
	<stop  offset="1" style="stop-color:#312783"/>
</linearGradient>
<path style="fill:url(#SVGID_00000046313265300930634940000016529194382739864231_);" d="M201.14,150.74
	c-1.54,0.12-13.88,1.11-14.63,1.17c-4.72-3.99-9.45-7.96-14.17-11.96l-0.9-0.77c-4.69,5.2-9.36,10.38-14.06,15.56
	c-0.1,0.12-0.22,0.26-0.34,0.38c8.17-15.09,16.33-30.17,24.5-45.26c0.01-0.02,0.03-0.05,0.04-0.08c0.03,0.05,0.04,0.09,0.07,0.14
	C188.15,123.53,194.64,137.13,201.14,150.74z"/>
</svg>
